# xmcd
#
# Track frame offsets: 
#        150
#        10701
#        57053
#        67395
#        89335
#        118333
#        127905
#
# Disc length: 2104 seconds
#
# Revision: 0
# Processed by: cddbd v1.5.2PL0 Copyright (c) Steve Scherf et al.
# Submitted via: ExactAudioCopy v1.3
#
DISCID=5c083607
DTITLE=志人 × ONTODA - 凹凸凹 - Bokodekoboko -
DYEAR=2018
DGENRE=
TTITLE0=Hitomishiri
TTITLE1="ズラカリ" 凶暴徒化スト運動 - 金感情癇癪尺貫法ノ変 -
TTITLE2=Hakkuli Storm
TTITLE3=乙女山公園 2003
TTITLE4=近代配列サンバ
TTITLE5=八角形の蓋
TTITLE6=十角形の迷路
EXTD=
EXTT0=
EXTT1=
EXTT2=
EXTT3=
EXTT4=
EXTT5=
EXTT6=
PLAYORDER=
